<mxfile host="app.diagrams.net" modified="2022-08-08T03:33:52.657Z" agent="5.0 (Windows NT 10.0; Win64; x64) AppleWebKit/537.36 (KHTML, like Gecko) Chrome/103.0.0.0 Safari/537.36" etag="9KpeFVYKVrLHKDPuNyV8" version="20.2.3" type="github">
  <diagram name="Page-1" id="52a04d89-c75d-2922-d76d-85b35f80e030">
    <mxGraphModel dx="2697" dy="1679" grid="1" gridSize="10" guides="1" tooltips="1" connect="1" arrows="1" fold="1" page="1" pageScale="1" pageWidth="1100" pageHeight="850" background="none" math="0" shadow="0">
      <root>
        <mxCell id="0" />
        <mxCell id="1" parent="0" />
        <mxCell id="pMYmZRGYHHG0uFq6aiRN-14" value="" style="rounded=0;whiteSpace=wrap;html=1;" parent="1" vertex="1">
          <mxGeometry x="610" y="310" width="210" height="460" as="geometry" />
        </mxCell>
        <mxCell id="fDOTyPMtcSiq2CqelDkS-2" value="" style="edgeStyle=orthogonalEdgeStyle;rounded=0;orthogonalLoop=1;jettySize=auto;html=1;" edge="1" parent="1" source="pMYmZRGYHHG0uFq6aiRN-1" target="pMYmZRGYHHG0uFq6aiRN-38">
          <mxGeometry relative="1" as="geometry" />
        </mxCell>
        <mxCell id="pMYmZRGYHHG0uFq6aiRN-1" value="job" style="rounded=0;whiteSpace=wrap;html=1;" parent="1" vertex="1">
          <mxGeometry x="345" y="-40" width="120" height="60" as="geometry" />
        </mxCell>
        <mxCell id="pMYmZRGYHHG0uFq6aiRN-5" value="" style="edgeStyle=orthogonalEdgeStyle;rounded=0;orthogonalLoop=1;jettySize=auto;html=1;exitX=0.5;exitY=1;exitDx=0;exitDy=0;" parent="1" source="pMYmZRGYHHG0uFq6aiRN-2" target="pMYmZRGYHHG0uFq6aiRN-4" edge="1">
          <mxGeometry relative="1" as="geometry">
            <mxPoint x="350" y="260" as="sourcePoint" />
            <Array as="points">
              <mxPoint x="405" y="350" />
              <mxPoint x="405" y="350" />
            </Array>
          </mxGeometry>
        </mxCell>
        <mxCell id="pMYmZRGYHHG0uFq6aiRN-2" value="com.caibeike.index.manager.AbstractIndexManager#createIndex()" style="whiteSpace=wrap;html=1;rounded=0;" parent="1" vertex="1">
          <mxGeometry x="200" y="210" width="390" height="60" as="geometry" />
        </mxCell>
        <mxCell id="pMYmZRGYHHG0uFq6aiRN-7" value="" style="edgeStyle=orthogonalEdgeStyle;rounded=0;orthogonalLoop=1;jettySize=auto;html=1;" parent="1" source="pMYmZRGYHHG0uFq6aiRN-4" target="pMYmZRGYHHG0uFq6aiRN-6" edge="1">
          <mxGeometry relative="1" as="geometry" />
        </mxCell>
        <mxCell id="pMYmZRGYHHG0uFq6aiRN-23" style="edgeStyle=orthogonalEdgeStyle;rounded=0;orthogonalLoop=1;jettySize=auto;html=1;exitX=1;exitY=0.5;exitDx=0;exitDy=0;entryX=0;entryY=0.5;entryDx=0;entryDy=0;" parent="1" source="pMYmZRGYHHG0uFq6aiRN-4" target="pMYmZRGYHHG0uFq6aiRN-20" edge="1">
          <mxGeometry relative="1" as="geometry" />
        </mxCell>
        <mxCell id="pMYmZRGYHHG0uFq6aiRN-34" style="edgeStyle=orthogonalEdgeStyle;rounded=0;orthogonalLoop=1;jettySize=auto;html=1;dashed=1;" parent="1" source="pMYmZRGYHHG0uFq6aiRN-4" target="pMYmZRGYHHG0uFq6aiRN-33" edge="1">
          <mxGeometry relative="1" as="geometry" />
        </mxCell>
        <mxCell id="pMYmZRGYHHG0uFq6aiRN-4" value="生成新的索引&lt;br&gt;indexName+timestamp" style="whiteSpace=wrap;html=1;rounded=0;" parent="1" vertex="1">
          <mxGeometry x="335" y="370" width="140" height="60" as="geometry" />
        </mxCell>
        <mxCell id="pMYmZRGYHHG0uFq6aiRN-6" value="查询数据导入新索引" style="whiteSpace=wrap;html=1;rounded=0;" parent="1" vertex="1">
          <mxGeometry x="345" y="470" width="120" height="60" as="geometry" />
        </mxCell>
        <mxCell id="pMYmZRGYHHG0uFq6aiRN-11" value="" style="edgeStyle=orthogonalEdgeStyle;rounded=0;orthogonalLoop=1;jettySize=auto;html=1;exitX=0.5;exitY=1;exitDx=0;exitDy=0;" parent="1" source="pMYmZRGYHHG0uFq6aiRN-6" target="pMYmZRGYHHG0uFq6aiRN-10" edge="1">
          <mxGeometry relative="1" as="geometry">
            <mxPoint x="655" y="470" as="sourcePoint" />
          </mxGeometry>
        </mxCell>
        <mxCell id="pMYmZRGYHHG0uFq6aiRN-13" value="" style="edgeStyle=orthogonalEdgeStyle;rounded=0;orthogonalLoop=1;jettySize=auto;html=1;" parent="1" source="pMYmZRGYHHG0uFq6aiRN-10" target="pMYmZRGYHHG0uFq6aiRN-12" edge="1">
          <mxGeometry relative="1" as="geometry" />
        </mxCell>
        <mxCell id="pMYmZRGYHHG0uFq6aiRN-10" value="新索引设置别名alias" style="whiteSpace=wrap;html=1;rounded=0;" parent="1" vertex="1">
          <mxGeometry x="345" y="570" width="120" height="60" as="geometry" />
        </mxCell>
        <mxCell id="pMYmZRGYHHG0uFq6aiRN-29" style="edgeStyle=orthogonalEdgeStyle;rounded=0;orthogonalLoop=1;jettySize=auto;html=1;entryX=0;entryY=0.5;entryDx=0;entryDy=0;fillColor=#fff2cc;strokeColor=#d6b656;" parent="1" source="pMYmZRGYHHG0uFq6aiRN-12" target="pMYmZRGYHHG0uFq6aiRN-17" edge="1">
          <mxGeometry relative="1" as="geometry" />
        </mxCell>
        <mxCell id="pMYmZRGYHHG0uFq6aiRN-12" value="删除旧索引" style="whiteSpace=wrap;html=1;rounded=0;" parent="1" vertex="1">
          <mxGeometry x="345" y="690" width="120" height="60" as="geometry" />
        </mxCell>
        <mxCell id="pMYmZRGYHHG0uFq6aiRN-16" value="ES" style="text;html=1;strokeColor=none;fillColor=none;align=center;verticalAlign=middle;whiteSpace=wrap;rounded=0;" parent="1" vertex="1">
          <mxGeometry x="685" y="320" width="60" height="30" as="geometry" />
        </mxCell>
        <mxCell id="pMYmZRGYHHG0uFq6aiRN-26" value="" style="edgeStyle=orthogonalEdgeStyle;rounded=0;orthogonalLoop=1;jettySize=auto;html=1;fillColor=#fff2cc;strokeColor=#d6b656;" parent="1" source="pMYmZRGYHHG0uFq6aiRN-17" target="pMYmZRGYHHG0uFq6aiRN-24" edge="1">
          <mxGeometry relative="1" as="geometry" />
        </mxCell>
        <mxCell id="pMYmZRGYHHG0uFq6aiRN-17" value="item-1661323045061" style="rounded=0;whiteSpace=wrap;html=1;fillColor=#fff2cc;strokeColor=#d6b656;" parent="1" vertex="1">
          <mxGeometry x="645" y="599.5" width="130" height="65" as="geometry" />
        </mxCell>
        <mxCell id="pMYmZRGYHHG0uFq6aiRN-19" value="" style="edgeStyle=orthogonalEdgeStyle;rounded=0;orthogonalLoop=1;jettySize=auto;html=1;fillColor=#fff2cc;strokeColor=#d6b656;" parent="1" source="pMYmZRGYHHG0uFq6aiRN-18" target="pMYmZRGYHHG0uFq6aiRN-17" edge="1">
          <mxGeometry relative="1" as="geometry" />
        </mxCell>
        <mxCell id="pMYmZRGYHHG0uFq6aiRN-18" value="old" style="text;html=1;strokeColor=#d6b656;fillColor=#fff2cc;align=center;verticalAlign=middle;whiteSpace=wrap;rounded=0;" parent="1" vertex="1">
          <mxGeometry x="850" y="617" width="60" height="30" as="geometry" />
        </mxCell>
        <mxCell id="pMYmZRGYHHG0uFq6aiRN-25" value="" style="edgeStyle=orthogonalEdgeStyle;rounded=0;orthogonalLoop=1;jettySize=auto;html=1;startArrow=none;" parent="1" source="pMYmZRGYHHG0uFq6aiRN-27" target="pMYmZRGYHHG0uFq6aiRN-24" edge="1">
          <mxGeometry relative="1" as="geometry" />
        </mxCell>
        <mxCell id="pMYmZRGYHHG0uFq6aiRN-20" value="item-1661360450612" style="rounded=0;whiteSpace=wrap;html=1;" parent="1" vertex="1">
          <mxGeometry x="650" y="370" width="120" height="60" as="geometry" />
        </mxCell>
        <mxCell id="pMYmZRGYHHG0uFq6aiRN-22" value="" style="edgeStyle=orthogonalEdgeStyle;rounded=0;orthogonalLoop=1;jettySize=auto;html=1;" parent="1" source="pMYmZRGYHHG0uFq6aiRN-21" target="pMYmZRGYHHG0uFq6aiRN-20" edge="1">
          <mxGeometry relative="1" as="geometry" />
        </mxCell>
        <mxCell id="pMYmZRGYHHG0uFq6aiRN-21" value="new" style="text;html=1;strokeColor=none;fillColor=none;align=center;verticalAlign=middle;whiteSpace=wrap;rounded=0;" parent="1" vertex="1">
          <mxGeometry x="860" y="385" width="60" height="30" as="geometry" />
        </mxCell>
        <mxCell id="pMYmZRGYHHG0uFq6aiRN-24" value="item" style="text;html=1;strokeColor=none;fillColor=none;align=center;verticalAlign=middle;whiteSpace=wrap;rounded=0;" parent="1" vertex="1">
          <mxGeometry x="680" y="500" width="60" height="30" as="geometry" />
        </mxCell>
        <mxCell id="pMYmZRGYHHG0uFq6aiRN-28" value="alias" style="text;html=1;strokeColor=none;fillColor=none;align=center;verticalAlign=middle;whiteSpace=wrap;rounded=0;" parent="1" vertex="1">
          <mxGeometry x="685" y="560" width="60" height="30" as="geometry" />
        </mxCell>
        <mxCell id="pMYmZRGYHHG0uFq6aiRN-30" value="delete" style="text;html=1;strokeColor=none;fillColor=none;align=center;verticalAlign=middle;whiteSpace=wrap;rounded=0;" parent="1" vertex="1">
          <mxGeometry x="520" y="659" width="60" height="30" as="geometry" />
        </mxCell>
        <mxCell id="pMYmZRGYHHG0uFq6aiRN-31" value="" style="endArrow=classic;html=1;rounded=0;exitX=0;exitY=0.5;exitDx=0;exitDy=0;" parent="1" source="pMYmZRGYHHG0uFq6aiRN-32" target="pMYmZRGYHHG0uFq6aiRN-24" edge="1">
          <mxGeometry width="50" height="50" relative="1" as="geometry">
            <mxPoint x="1000" y="520" as="sourcePoint" />
            <mxPoint x="550" y="490" as="targetPoint" />
          </mxGeometry>
        </mxCell>
        <mxCell id="pMYmZRGYHHG0uFq6aiRN-32" value="search" style="rounded=0;whiteSpace=wrap;html=1;" parent="1" vertex="1">
          <mxGeometry x="930" y="485" width="120" height="60" as="geometry" />
        </mxCell>
        <mxCell id="pMYmZRGYHHG0uFq6aiRN-33" value="mappingName.json" style="ellipse;whiteSpace=wrap;html=1;fillColor=#f8cecc;strokeColor=#b85450;" parent="1" vertex="1">
          <mxGeometry x="180" y="465" width="120" height="80" as="geometry" />
        </mxCell>
        <mxCell id="pMYmZRGYHHG0uFq6aiRN-35" value="索引构建配置文件" style="text;html=1;strokeColor=none;fillColor=none;align=center;verticalAlign=middle;whiteSpace=wrap;rounded=0;" parent="1" vertex="1">
          <mxGeometry x="190" y="545" width="110" height="15" as="geometry" />
        </mxCell>
        <mxCell id="pMYmZRGYHHG0uFq6aiRN-27" value="alias" style="text;html=1;strokeColor=none;fillColor=none;align=center;verticalAlign=middle;whiteSpace=wrap;rounded=0;" parent="1" vertex="1">
          <mxGeometry x="680" y="450" width="60" height="30" as="geometry" />
        </mxCell>
        <mxCell id="pMYmZRGYHHG0uFq6aiRN-37" value="" style="edgeStyle=orthogonalEdgeStyle;rounded=0;orthogonalLoop=1;jettySize=auto;html=1;endArrow=none;" parent="1" source="pMYmZRGYHHG0uFq6aiRN-20" target="pMYmZRGYHHG0uFq6aiRN-27" edge="1">
          <mxGeometry relative="1" as="geometry">
            <mxPoint x="710" y="430" as="sourcePoint" />
            <mxPoint x="710" y="500" as="targetPoint" />
          </mxGeometry>
        </mxCell>
        <mxCell id="pMYmZRGYHHG0uFq6aiRN-41" value="" style="edgeStyle=orthogonalEdgeStyle;rounded=0;orthogonalLoop=1;jettySize=auto;html=1;dashed=1;fontColor=#000000;entryX=0.524;entryY=-0.035;entryDx=0;entryDy=0;entryPerimeter=0;" parent="1" source="pMYmZRGYHHG0uFq6aiRN-38" target="pMYmZRGYHHG0uFq6aiRN-2" edge="1">
          <mxGeometry relative="1" as="geometry">
            <mxPoint x="405" y="200" as="targetPoint" />
          </mxGeometry>
        </mxCell>
        <mxCell id="pMYmZRGYHHG0uFq6aiRN-38" value="IndexCreateJob" style="rounded=0;whiteSpace=wrap;html=1;fontColor=#000000;" parent="1" vertex="1">
          <mxGeometry x="345" y="100" width="120" height="60" as="geometry" />
        </mxCell>
        <mxCell id="fDOTyPMtcSiq2CqelDkS-10" value="" style="edgeStyle=orthogonalEdgeStyle;rounded=0;orthogonalLoop=1;jettySize=auto;html=1;" edge="1" parent="1" source="fDOTyPMtcSiq2CqelDkS-3" target="fDOTyPMtcSiq2CqelDkS-9">
          <mxGeometry relative="1" as="geometry" />
        </mxCell>
        <mxCell id="fDOTyPMtcSiq2CqelDkS-3" value="IncrementIndexJob" style="rounded=0;whiteSpace=wrap;html=1;" vertex="1" parent="1">
          <mxGeometry x="-60" y="-80" width="120" height="60" as="geometry" />
        </mxCell>
        <mxCell id="fDOTyPMtcSiq2CqelDkS-5" value="" style="edgeStyle=orthogonalEdgeStyle;rounded=0;orthogonalLoop=1;jettySize=auto;html=1;" edge="1" parent="1" source="fDOTyPMtcSiq2CqelDkS-4" target="fDOTyPMtcSiq2CqelDkS-3">
          <mxGeometry relative="1" as="geometry" />
        </mxCell>
        <mxCell id="fDOTyPMtcSiq2CqelDkS-4" value="job" style="rounded=0;whiteSpace=wrap;html=1;" vertex="1" parent="1">
          <mxGeometry x="30" y="-230" width="120" height="60" as="geometry" />
        </mxCell>
        <mxCell id="fDOTyPMtcSiq2CqelDkS-8" value="" style="edgeStyle=orthogonalEdgeStyle;rounded=0;orthogonalLoop=1;jettySize=auto;html=1;entryX=0.25;entryY=0;entryDx=0;entryDy=0;" edge="1" parent="1" source="fDOTyPMtcSiq2CqelDkS-6" target="fDOTyPMtcSiq2CqelDkS-3">
          <mxGeometry relative="1" as="geometry">
            <mxPoint x="-70" y="-90" as="targetPoint" />
          </mxGeometry>
        </mxCell>
        <mxCell id="fDOTyPMtcSiq2CqelDkS-6" value="message" style="rounded=0;whiteSpace=wrap;html=1;" vertex="1" parent="1">
          <mxGeometry x="-180" y="-230" width="120" height="60" as="geometry" />
        </mxCell>
        <mxCell id="fDOTyPMtcSiq2CqelDkS-13" value="" style="edgeStyle=orthogonalEdgeStyle;rounded=0;orthogonalLoop=1;jettySize=auto;html=1;entryX=0.536;entryY=-0.044;entryDx=0;entryDy=0;entryPerimeter=0;" edge="1" parent="1" source="fDOTyPMtcSiq2CqelDkS-9" target="fDOTyPMtcSiq2CqelDkS-12">
          <mxGeometry relative="1" as="geometry" />
        </mxCell>
        <mxCell id="fDOTyPMtcSiq2CqelDkS-9" value="IndexMessageManager" style="rounded=0;whiteSpace=wrap;html=1;" vertex="1" parent="1">
          <mxGeometry x="-70" y="30" width="140" height="60" as="geometry" />
        </mxCell>
        <mxCell id="fDOTyPMtcSiq2CqelDkS-15" value="" style="edgeStyle=orthogonalEdgeStyle;rounded=0;orthogonalLoop=1;jettySize=auto;html=1;entryX=0.5;entryY=1;entryDx=0;entryDy=0;" edge="1" parent="1" source="fDOTyPMtcSiq2CqelDkS-12" target="pMYmZRGYHHG0uFq6aiRN-14">
          <mxGeometry relative="1" as="geometry">
            <mxPoint x="-15" y="350" as="targetPoint" />
            <Array as="points">
              <mxPoint y="790" />
              <mxPoint x="715" y="790" />
            </Array>
          </mxGeometry>
        </mxCell>
        <mxCell id="fDOTyPMtcSiq2CqelDkS-12" value="com.caibeike.index.manager.AbstractIndexManager#updateDocuments()" style="whiteSpace=wrap;html=1;rounded=0;" vertex="1" parent="1">
          <mxGeometry x="-210" y="210" width="390" height="60" as="geometry" />
        </mxCell>
      </root>
    </mxGraphModel>
  </diagram>
</mxfile>
